<svg width="25" height="25" viewBox="0 0 25 25" fill="none" xmlns="http://www.w3.org/2000/svg">
<g id="iconixto/solid/add-square">
<path id="icon" fill-rule="evenodd" clip-rule="evenodd" d="M22.5 12.3658C22.5 8.62738 22.5 6.75815 21.6962 5.36584C21.1695 4.45373 20.4121 3.6963 19.5 3.16969C18.1077 2.36584 16.2385 2.36584 12.5 2.36584C8.76154 2.36584 6.8923 2.36584 5.5 3.16969C4.58788 3.6963 3.83046 4.45373 3.30385 5.36584C2.5 6.75815 2.5 8.62738 2.5 12.3658C2.5 16.1043 2.5 17.9735 3.30385 19.3658C3.83046 20.278 4.58788 21.0354 5.5 21.562C6.8923 22.3658 8.76154 22.3658 12.5 22.3658C16.2385 22.3658 18.1077 22.3658 19.5 21.562C20.4121 21.0354 21.1695 20.278 21.6962 19.3658C22.5 17.9735 22.5 16.1043 22.5 12.3658ZM13.25 8.36584C13.25 7.95163 12.9142 7.61584 12.5 7.61584C12.0858 7.61584 11.75 7.95163 11.75 8.36584V11.6158H8.5C8.08579 11.6158 7.75 11.9516 7.75 12.3658C7.75 12.7801 8.08579 13.1158 8.5 13.1158H11.75V16.3658C11.75 16.7801 12.0858 17.1158 12.5 17.1158C12.9142 17.1158 13.25 16.7801 13.25 16.3658V13.1158H16.5C16.9142 13.1158 17.25 12.7801 17.25 12.3658C17.25 11.9516 16.9142 11.6158 16.5 11.6158H13.25V8.36584Z" fill="#7B4CB8"/>
</g>
</svg>
