<svg width="13" height="13" viewBox="0 0 13 13" fill="none" xmlns="http://www.w3.org/2000/svg">
<path fill-rule="evenodd" clip-rule="evenodd" d="M7.59488 2.77652C7.69236 2.68675 7.73028 2.56652 7.66407 2.44072C7.58245 2.28568 7.46283 2.1448 7.31203 2.02613C7.16123 1.90746 6.98221 1.81333 6.78518 1.7491C6.58815 1.68488 6.37697 1.65182 6.16371 1.65182C5.95044 1.65182 5.73927 1.68488 5.54224 1.7491C5.34521 1.81333 5.16618 1.90746 5.01538 2.02613C4.86458 2.1448 4.74496 2.28568 4.66335 2.44072C4.59713 2.56652 4.63505 2.68675 4.73253 2.77652H4.63017C3.5009 2.77652 2.58545 3.69197 2.58545 4.82124V9.93304C2.58545 11.0623 3.5009 11.9778 4.63017 11.9778H7.69725C8.82651 11.9778 9.74196 11.0623 9.74196 9.93304V4.82124C9.74196 3.69197 8.82651 2.77652 7.69725 2.77652H7.59488ZM4.74115 7.6663L5.87321 5.40219C5.94558 5.25746 6.16373 5.30895 6.16373 5.47078V6.71252C6.16373 6.79722 6.23238 6.86588 6.31708 6.86588H7.44913C7.56313 6.86588 7.63728 6.98585 7.5863 7.08781L6.45424 9.35192C6.38187 9.49666 6.16373 9.44516 6.16373 9.28334V8.04159C6.16373 7.9569 6.09507 7.88824 6.01037 7.88824H4.87832C4.76432 7.88824 4.69017 7.76827 4.74115 7.6663Z" fill="#E03388"/>
<path fill-rule="evenodd" clip-rule="evenodd" d="M7.59488 2.77652C7.69236 2.68675 7.73028 2.56652 7.66407 2.44072C7.58245 2.28568 7.46283 2.1448 7.31203 2.02613C7.16123 1.90746 6.98221 1.81333 6.78518 1.7491C6.58815 1.68488 6.37697 1.65182 6.16371 1.65182C5.95044 1.65182 5.73927 1.68488 5.54224 1.7491C5.34521 1.81333 5.16618 1.90746 5.01538 2.02613C4.86458 2.1448 4.74496 2.28568 4.66335 2.44072C4.59713 2.56652 4.63505 2.68675 4.73253 2.77652H4.63017C3.5009 2.77652 2.58545 3.69197 2.58545 4.82124V9.93304C2.58545 11.0623 3.5009 11.9778 4.63017 11.9778H7.69725C8.82651 11.9778 9.74196 11.0623 9.74196 9.93304V4.82124C9.74196 3.69197 8.82651 2.77652 7.69725 2.77652H7.59488ZM4.74115 7.6663L5.87321 5.40219C5.94558 5.25746 6.16373 5.30895 6.16373 5.47078V6.71252C6.16373 6.79722 6.23238 6.86588 6.31708 6.86588H7.44913C7.56313 6.86588 7.63728 6.98585 7.5863 7.08781L6.45424 9.35192C6.38187 9.49666 6.16373 9.44516 6.16373 9.28334V8.04159C6.16373 7.9569 6.09507 7.88824 6.01037 7.88824H4.87832C4.76432 7.88824 4.69017 7.76827 4.74115 7.6663Z" fill="url(#paint0_linear_103_4211)"/>
<defs>
<linearGradient id="paint0_linear_103_4211" x1="6.16371" y1="6" x2="6.16371" y2="12" gradientUnits="userSpaceOnUse">
<stop stop-color="#4BCF45"/>
<stop offset="1" stop-color="#FF6600"/>
</linearGradient>
</defs>
</svg>
