<svg width="17" height="17" viewBox="0 0 17 17" fill="none" xmlns="http://www.w3.org/2000/svg">
<path d="M5.50259 7.27543C5.86012 7.27543 6.14995 6.9856 6.14995 6.62807C6.14995 6.27055 5.86012 5.98071 5.50259 5.98071C5.14506 5.98071 4.85523 6.27055 4.85523 6.62807C4.85523 6.9856 5.14506 7.27543 5.50259 7.27543Z" fill="#D8CFE7"/>
<path d="M9.38674 6.62807C9.38674 6.9856 9.09691 7.27543 8.73939 7.27543C8.38186 7.27543 8.09203 6.9856 8.09203 6.62807C8.09203 6.27055 8.38186 5.98071 8.73939 5.98071C9.09691 5.98071 9.38674 6.27055 9.38674 6.62807Z" fill="#D8CFE7"/>
<path d="M11.9762 7.27543C12.3337 7.27543 12.6235 6.9856 12.6235 6.62807C12.6235 6.27055 12.3337 5.98071 11.9762 5.98071C11.6187 5.98071 11.3288 6.27055 11.3288 6.62807C11.3288 6.9856 11.6187 7.27543 11.9762 7.27543Z" fill="#D8CFE7"/>
<path d="M6.14995 8.89383C6.14995 9.25136 5.86012 9.54119 5.50259 9.54119C5.14506 9.54119 4.85523 9.25136 4.85523 8.89383C4.85523 8.5363 5.14506 8.24647 5.50259 8.24647C5.86012 8.24647 6.14995 8.5363 6.14995 8.89383Z" fill="#D8CFE7"/>
<path d="M8.73939 9.54119C9.09691 9.54119 9.38674 9.25136 9.38674 8.89383C9.38674 8.5363 9.09691 8.24647 8.73939 8.24647C8.38186 8.24647 8.09203 8.5363 8.09203 8.89383C8.09203 9.25136 8.38186 9.54119 8.73939 9.54119Z" fill="#D8CFE7"/>
<path d="M12.6235 8.89383C12.6235 9.25136 12.3337 9.54119 11.9762 9.54119C11.6187 9.54119 11.3288 9.25136 11.3288 8.89383C11.3288 8.5363 11.6187 8.24647 11.9762 8.24647C12.3337 8.24647 12.6235 8.5363 12.6235 8.89383Z" fill="#D8CFE7"/>
<path d="M5.50259 11.8069C5.86012 11.8069 6.14995 11.5171 6.14995 11.1596C6.14995 10.8021 5.86012 10.5122 5.50259 10.5122C5.14506 10.5122 4.85523 10.8021 4.85523 11.1596C4.85523 11.5171 5.14506 11.8069 5.50259 11.8069Z" fill="#D8CFE7"/>
<path d="M9.38674 11.1596C9.38674 11.5171 9.09691 11.8069 8.73939 11.8069C8.38186 11.8069 8.09203 11.5171 8.09203 11.1596C8.09203 10.8021 8.38186 10.5122 8.73939 10.5122C9.09691 10.5122 9.38674 10.8021 9.38674 11.1596Z" fill="#D8CFE7"/>
<path d="M11.9762 11.8069C12.3337 11.8069 12.6235 11.5171 12.6235 11.1596C12.6235 10.8021 12.3337 10.5122 11.9762 10.5122C11.6187 10.5122 11.3288 10.8021 11.3288 11.1596C11.3288 11.5171 11.6187 11.8069 11.9762 11.8069Z" fill="#D8CFE7"/>
<path fill-rule="evenodd" clip-rule="evenodd" d="M5.98811 2.09656C5.98811 1.82841 5.77073 1.61104 5.50259 1.61104C5.23444 1.61104 5.01707 1.82841 5.01707 2.09656H4.85523C3.42512 2.09656 2.26579 3.25589 2.26579 4.68599V11.8069C2.26579 13.2371 3.42512 14.3964 4.85523 14.3964H12.6235C14.0536 14.3964 15.213 13.2371 15.213 11.8069V4.68599C15.213 3.25589 14.0536 2.09656 12.6235 2.09656H12.4617C12.4617 1.82841 12.2443 1.61104 11.9762 1.61104C11.708 1.61104 11.4907 1.82841 11.4907 2.09656H5.98811ZM11.4907 4.03864V3.0676H5.98811V4.03864C5.98811 4.30678 5.77073 4.52415 5.50259 4.52415C5.23444 4.52415 5.01707 4.30678 5.01707 4.03864V3.0676H4.85523C3.96141 3.0676 3.23683 3.79218 3.23683 4.68599V11.8069C3.23683 12.7008 3.96141 13.4253 4.85523 13.4253H12.6235C13.5174 13.4253 14.2419 12.7008 14.2419 11.8069V4.68599C14.2419 3.79218 13.5174 3.0676 12.6235 3.0676H12.4617V4.03864C12.4617 4.30678 12.2443 4.52415 11.9762 4.52415C11.708 4.52415 11.4907 4.30678 11.4907 4.03864Z" fill="#D8CFE7"/>
</svg>
