<svg width="82" height="72" viewBox="0 0 82 72" fill="none" xmlns="http://www.w3.org/2000/svg">
<rect x="40.5525" y="0.731689" width="0.896708" height="3.47812" rx="0.448354" fill="#4CCF1C"/>
<rect width="0.896728" height="3.47805" rx="0.448364" transform="matrix(0.999207 0.0398231 -0.0387045 0.999251 42.1494 0.745605)" fill="black" fill-opacity="0.16"/>
<rect width="0.896788" height="3.47782" rx="0.448394" transform="matrix(0.996828 0.0795794 -0.0773543 0.997004 43.7437 0.82309)" fill="black" fill-opacity="0.16"/>
<rect width="0.896887" height="3.47745" rx="0.448444" transform="matrix(0.99287 0.119203 -0.115895 0.993261 45.3359 0.964203)" fill="black" fill-opacity="0.16"/>
<rect width="0.897026" height="3.47692" rx="0.448513" transform="matrix(0.987339 0.158626 -0.154272 0.988028 46.9194 1.16843)" fill="black" fill-opacity="0.16"/>
<rect width="0.897202" height="3.47626" rx="0.448601" transform="matrix(0.980245 0.197785 -0.19243 0.981311 48.4956 1.43564)" fill="black" fill-opacity="0.16"/>
<rect width="0.897415" height="3.47545" rx="0.448708" transform="matrix(0.971604 0.236613 -0.230315 0.973116 50.0583 1.76532)" fill="black" fill-opacity="0.16"/>
<rect width="0.897664" height="3.47452" rx="0.448832" transform="matrix(0.961431 0.275048 -0.267873 0.963454 51.6084 2.15714)" fill="black" fill-opacity="0.16"/>
<rect width="0.897947" height="3.47345" rx="0.448973" transform="matrix(0.949745 0.313025 -0.305049 0.952336 53.1418 2.61029)" fill="black" fill-opacity="0.16"/>
<rect width="0.898261" height="3.47226" rx="0.449131" transform="matrix(0.936569 0.350483 -0.34179 0.939776 54.6565 3.12415)" fill="black" fill-opacity="0.16"/>
<rect width="0.898607" height="3.47095" rx="0.449303" transform="matrix(0.921928 0.387362 -0.378042 0.925788 56.1492 3.69791)" fill="black" fill-opacity="0.16"/>
<rect width="0.89898" height="3.46954" rx="0.44949" transform="matrix(0.905848 0.423602 -0.41375 0.91039 57.6204 4.33072)" fill="black" fill-opacity="0.16"/>
<rect width="0.899379" height="3.46802" rx="0.449689" transform="matrix(0.888361 0.459147 -0.448862 0.893601 59.0657 5.0217)" fill="black" fill-opacity="0.16"/>
<rect width="0.899801" height="3.46642" rx="0.449901" transform="matrix(0.869497 0.493939 -0.483325 0.875441 60.4822 5.76953)" fill="black" fill-opacity="0.16"/>
<rect width="0.900244" height="3.46474" rx="0.450122" transform="matrix(0.849291 0.527925 -0.517086 0.855933 61.8672 6.57327)" fill="black" fill-opacity="0.16"/>
<rect width="0.900705" height="3.46299" rx="0.450352" transform="matrix(0.82778 0.561053 -0.550093 0.835103 63.2227 7.43158)" fill="black" fill-opacity="0.16"/>
<rect width="0.901181" height="3.46118" rx="0.45059" transform="matrix(0.805002 0.593272 -0.582295 0.812977 64.543 8.3432)" fill="black" fill-opacity="0.16"/>
<rect width="0.901668" height="3.45932" rx="0.450834" transform="matrix(0.780997 0.624535 -0.613641 0.789585 65.8276 9.30679)" fill="black" fill-opacity="0.16"/>
<rect width="0.902165" height="3.45743" rx="0.451083" transform="matrix(0.755806 0.654795 -0.64408 0.764958 67.0735 10.3207)" fill="black" fill-opacity="0.16"/>
<rect width="0.902668" height="3.45551" rx="0.451334" transform="matrix(0.729474 0.684009 -0.673564 0.739128 68.2778 11.3834)" fill="black" fill-opacity="0.16"/>
<rect width="0.903174" height="3.45357" rx="0.451587" transform="matrix(0.702045 0.712133 -0.702045 0.712133 69.4417 12.4933)" fill="black" fill-opacity="0.16"/>
<rect width="0.903174" height="3.45357" rx="0.451587" transform="matrix(-0.702045 -0.712133 0.702045 -0.712133 12.5583 71.4801)" fill="#4CCF1C"/>
<rect width="0.903679" height="3.45164" rx="0.451839" transform="matrix(0.673564 0.739128 -0.729474 0.684009 70.5603 13.6487)" fill="black" fill-opacity="0.16"/>
<rect width="0.903679" height="3.45164" rx="0.451839" transform="matrix(-0.673565 -0.739128 0.729474 -0.684009 11.4397 70.3247)" fill="#4CCF1C"/>
<rect width="0.904181" height="3.44972" rx="0.45209" transform="matrix(0.64408 0.764958 -0.755806 0.654795 71.6362 14.8477)" fill="black" fill-opacity="0.16"/>
<rect width="0.904181" height="3.44972" rx="0.45209" transform="matrix(-0.644081 -0.764958 0.755806 -0.654795 10.3655 69.1257)" fill="#4CCF1C"/>
<rect width="0.904676" height="3.44782" rx="0.452338" transform="matrix(0.613641 0.789585 -0.780997 0.624535 72.6619 16.0887)" fill="black" fill-opacity="0.16"/>
<rect width="0.904676" height="3.44782" rx="0.452338" transform="matrix(-0.613641 -0.789585 0.780997 -0.624535 9.33813 67.8847)" fill="#4CCF1C"/>
<rect width="0.905162" height="3.44595" rx="0.452581" transform="matrix(0.582295 0.812977 -0.805002 0.593272 73.6406 17.3695)" fill="black" fill-opacity="0.16"/>
<rect width="0.905162" height="3.44595" rx="0.452581" transform="matrix(-0.582295 -0.812977 0.805002 -0.593272 8.36011 66.6039)" fill="#4CCF1C"/>
<rect width="0.905636" height="3.44413" rx="0.452818" transform="matrix(0.550093 0.835103 -0.82778 0.561053 74.5679 18.6883)" fill="black" fill-opacity="0.16"/>
<rect width="0.905636" height="3.44413" rx="0.452818" transform="matrix(-0.550094 -0.835103 0.82778 -0.561053 7.43384 65.285)" fill="#4CCF1C"/>
<rect width="0.906094" height="3.44237" rx="0.453047" transform="matrix(0.517086 0.855933 -0.849291 0.527925 75.4436 20.0431)" fill="black" fill-opacity="0.16"/>
<rect width="0.906094" height="3.44237" rx="0.453047" transform="matrix(-0.517086 -0.855933 0.849291 -0.527925 6.55737 63.9304)" fill="#4CCF1C"/>
<rect width="0.906533" height="3.44068" rx="0.453267" transform="matrix(0.483325 0.875441 -0.869497 0.493939 76.2666 21.4317)" fill="black" fill-opacity="0.16"/>
<rect width="0.906533" height="3.44068" rx="0.453267" transform="matrix(-0.483325 -0.875441 0.869497 -0.493939 5.73438 62.5417)" fill="#4CCF1C"/>
<rect width="0.906953" height="3.43906" rx="0.453476" transform="matrix(0.448862 0.893601 -0.888361 0.459147 77.0339 22.8519)" fill="black" fill-opacity="0.16"/>
<rect width="0.906953" height="3.43906" rx="0.453476" transform="matrix(-0.448862 -0.893601 0.88836 -0.459147 4.96606 61.1215)" fill="#4CCF1C"/>
<rect width="0.907348" height="3.43754" rx="0.453674" transform="matrix(0.41375 0.91039 -0.905848 0.423603 77.7476 24.3017)" fill="black" fill-opacity="0.16"/>
<rect width="0.907348" height="3.43754" rx="0.453674" transform="matrix(-0.41375 -0.91039 0.905848 -0.423603 4.25269 59.6718)" fill="#4CCF1C"/>
<rect width="0.907718" height="3.43611" rx="0.453859" transform="matrix(0.378042 0.925788 -0.921928 0.387362 78.4038 25.7787)" fill="black" fill-opacity="0.16"/>
<rect width="0.907718" height="3.43611" rx="0.453859" transform="matrix(-0.378042 -0.925788 0.921928 -0.387362 3.59619 58.1946)" fill="#4CCF1C"/>
<rect width="0.908059" height="3.43479" rx="0.45403" transform="matrix(0.34179 0.939776 -0.936569 0.350483 79.0012 27.2808)" fill="black" fill-opacity="0.16"/>
<rect width="0.908059" height="3.43479" rx="0.45403" transform="matrix(-0.34179 -0.939776 0.936569 -0.350484 2.99878 56.6927)" fill="#4CCF1C"/>
<rect width="0.908371" height="3.43359" rx="0.454185" transform="matrix(0.305049 0.952336 -0.949745 0.313025 79.5415 28.8055)" fill="black" fill-opacity="0.16"/>
<rect width="0.908371" height="3.43359" rx="0.454185" transform="matrix(-0.30505 -0.952336 0.949745 -0.313025 2.4585 55.1679)" fill="#4CCF1C"/>
<rect width="0.90865" height="3.43251" rx="0.454325" transform="matrix(0.267873 0.963454 -0.961431 0.275048 80.0212 30.3506)" fill="black" fill-opacity="0.16"/>
<rect width="0.90865" height="3.43251" rx="0.454325" transform="matrix(-0.267873 -0.963454 0.961431 -0.275048 1.97705 53.6229)" fill="#4CCF1C"/>
<rect width="0.908896" height="3.43155" rx="0.454448" transform="matrix(0.230315 0.973116 -0.971604 0.236613 80.4417 31.9135)" fill="black" fill-opacity="0.16"/>
<rect width="0.908896" height="3.43155" rx="0.454448" transform="matrix(-0.230315 -0.973116 0.971604 -0.236613 1.55762 52.0599)" fill="#4CCF1C"/>
<rect width="0.909106" height="3.43074" rx="0.454553" transform="matrix(0.19243 0.981311 -0.980245 0.197785 80.8015 33.492)" fill="black" fill-opacity="0.16"/>
<rect width="0.909106" height="3.43074" rx="0.454553" transform="matrix(-0.19243 -0.981311 0.980245 -0.197785 1.19849 50.4814)" fill="#4CCF1C"/>
<rect width="0.90928" height="3.43006" rx="0.45464" transform="matrix(0.154272 0.988028 -0.987339 0.158626 81.0996 35.0837)" fill="black" fill-opacity="0.16"/>
<rect width="0.90928" height="3.43006" rx="0.45464" transform="matrix(-0.154272 -0.988028 0.987339 -0.158626 0.900635 48.8898)" fill="#4CCF1C"/>
<rect width="0.909416" height="3.42954" rx="0.454708" transform="matrix(0.115895 0.993261 -0.99287 0.119203 81.3362 36.6859)" fill="black" fill-opacity="0.16"/>
<rect width="0.909416" height="3.42954" rx="0.454708" transform="matrix(-0.115895 -0.993261 0.99287 -0.119203 0.663818 47.2875)" fill="#4CCF1C"/>
<rect width="0.909515" height="3.42916" rx="0.454757" transform="matrix(0.0773543 0.997004 -0.996828 0.0795794 81.5103 38.2963)" fill="black" fill-opacity="0.16"/>
<rect width="0.909515" height="3.42916" rx="0.454757" transform="matrix(-0.0773544 -0.997004 0.996828 -0.0795795 0.48999 45.6771)" fill="#4CCF1C"/>
<rect width="0.909574" height="3.42893" rx="0.454787" transform="matrix(0.0387045 0.999251 -0.999207 0.0398231 81.6213 39.9124)" fill="black" fill-opacity="0.16"/>
<rect width="0.909574" height="3.42893" rx="0.454787" transform="matrix(-0.0387046 -0.999251 0.999207 -0.0398232 0.378662 44.061)" fill="#4CCF1C"/>
<rect x="81.6707" y="41.5317" width="0.909593" height="3.42885" rx="0.454797" transform="rotate(90 81.6707 41.5317)" fill="black" fill-opacity="0.16"/>
<rect x="0.329346" y="42.4417" width="0.909593" height="3.42885" rx="0.454797" transform="rotate(-90 0.329346 42.4417)" fill="#4CCF1C"/>
<rect width="0.909574" height="3.42893" rx="0.454787" transform="matrix(-0.0387045 0.999251 -0.999207 -0.0398231 81.657 43.1523)" fill="black" fill-opacity="0.16"/>
<rect width="0.909574" height="3.42893" rx="0.454787" transform="matrix(0.0387045 -0.999251 0.999207 0.039823 0.34375 40.8223)" fill="#4CCF1C"/>
<rect width="0.909515" height="3.42916" rx="0.454757" transform="matrix(-0.0773544 0.997004 -0.996828 -0.0795795 81.5808 44.7704)" fill="black" fill-opacity="0.16"/>
<rect width="0.909515" height="3.42916" rx="0.454757" transform="matrix(0.0773543 -0.997004 0.996828 0.0795794 0.419922 39.2038)" fill="#4CCF1C"/>
<rect width="0.909416" height="3.42954" rx="0.454708" transform="matrix(-0.115895 0.993261 -0.99287 -0.119203 81.4419 46.3845)" fill="black" fill-opacity="0.16"/>
<rect width="0.909416" height="3.42954" rx="0.454708" transform="matrix(0.115895 -0.993261 0.99287 0.119202 0.558105 37.59)" fill="#4CCF1C"/>
<rect width="0.90928" height="3.43006" rx="0.45464" transform="matrix(-0.154272 0.988028 -0.987339 -0.158626 81.2393 47.9915)" fill="black" fill-opacity="0.16"/>
<rect width="0.90928" height="3.43006" rx="0.45464" transform="matrix(0.154271 -0.988028 0.987339 0.158626 0.76001 35.9829)" fill="#4CCF1C"/>
<rect width="0.909106" height="3.43074" rx="0.454553" transform="matrix(-0.19243 0.981311 -0.980245 -0.197785 80.9763 49.5896)" fill="black" fill-opacity="0.16"/>
<rect width="0.909106" height="3.43074" rx="0.454553" transform="matrix(0.19243 -0.981311 0.980245 0.197785 1.02368 34.3852)" fill="#4CCF1C"/>
<rect width="0.908896" height="3.43155" rx="0.454448" transform="matrix(-0.230315 0.973116 -0.971604 -0.236613 80.6514 51.1755)" fill="black" fill-opacity="0.16"/>
<rect width="0.908896" height="3.43155" rx="0.454448" transform="matrix(0.230315 -0.973116 0.971604 0.236613 1.34863 32.7988)" fill="#4CCF1C"/>
<rect width="0.90865" height="3.43251" rx="0.454325" transform="matrix(-0.267873 0.963454 -0.961431 -0.275048 80.2644 52.7474)" fill="black" fill-opacity="0.16"/>
<rect width="0.90865" height="3.43251" rx="0.454325" transform="matrix(0.267873 -0.963454 0.961431 0.275048 1.73413 31.2266)" fill="#4CCF1C"/>
<rect width="0.908371" height="3.43359" rx="0.454185" transform="matrix(-0.305049 0.952336 -0.949745 -0.313025 79.8186 54.3026)" fill="black" fill-opacity="0.16"/>
<rect width="0.908371" height="3.43359" rx="0.454185" transform="matrix(0.305049 -0.952336 0.949745 0.313025 2.1814 29.6709)" fill="#4CCF1C"/>
<rect width="0.908059" height="3.43479" rx="0.45403" transform="matrix(-0.34179 0.939776 -0.936569 -0.350484 79.3118 55.8391)" fill="black" fill-opacity="0.16"/>
<rect width="0.908059" height="3.43479" rx="0.45403" transform="matrix(0.34179 -0.939776 0.936569 0.350483 2.6875 28.1347)" fill="#4CCF1C"/>
<rect width="0.907718" height="3.43611" rx="0.453859" transform="matrix(-0.378042 0.925788 -0.921928 -0.387362 78.7461 57.3545)" fill="black" fill-opacity="0.16"/>
<rect width="0.907718" height="3.43611" rx="0.453859" transform="matrix(0.378042 -0.925789 0.921928 0.387362 3.25391 26.6199)" fill="#4CCF1C"/>
<rect width="0.907348" height="3.43754" rx="0.453674" transform="matrix(-0.41375 0.91039 -0.905848 -0.423603 78.1223 58.846)" fill="black" fill-opacity="0.16"/>
<rect width="0.907348" height="3.43754" rx="0.453674" transform="matrix(0.41375 -0.91039 0.905848 0.423602 3.87671 25.1288)" fill="#4CCF1C"/>
<rect width="0.906953" height="3.43906" rx="0.453476" transform="matrix(-0.448862 0.893601 -0.888361 -0.459147 77.4414 60.3113)" fill="black" fill-opacity="0.16"/>
<rect width="0.906953" height="3.43906" rx="0.453476" transform="matrix(0.448862 -0.893601 0.888361 0.459147 4.55835 23.6633)" fill="#4CCF1C"/>
<rect width="0.906533" height="3.44068" rx="0.453267" transform="matrix(-0.483325 0.875441 -0.869497 -0.493939 76.7041 61.7482)" fill="black" fill-opacity="0.16"/>
<rect width="0.906533" height="3.44068" rx="0.453267" transform="matrix(0.483325 -0.875441 0.869497 0.493939 5.29565 22.2259)" fill="#4CCF1C"/>
<rect width="0.906094" height="3.44237" rx="0.453047" transform="matrix(-0.517086 0.855933 -0.849291 -0.527925 75.9114 63.1547)" fill="black" fill-opacity="0.16"/>
<rect width="0.906094" height="3.44237" rx="0.453047" transform="matrix(0.517086 -0.855933 0.849291 0.527925 6.08862 20.8192)" fill="#4CCF1C"/>
<rect width="0.905636" height="3.44413" rx="0.452818" transform="matrix(-0.550094 0.835103 -0.82778 -0.561053 75.0662 64.529)" fill="black" fill-opacity="0.16"/>
<rect width="0.905636" height="3.44413" rx="0.452818" transform="matrix(0.550093 -0.835103 0.82778 0.561053 6.93555 19.4454)" fill="#4CCF1C"/>
<rect width="0.905162" height="3.44595" rx="0.452581" transform="matrix(-0.582295 0.812977 -0.805002 -0.593272 74.1672 65.8681)" fill="black" fill-opacity="0.16"/>
<rect width="0.905162" height="3.44595" rx="0.452581" transform="matrix(0.582295 -0.812977 0.805002 0.593272 7.83276 18.1061)" fill="#4CCF1C"/>
<rect width="0.904676" height="3.44782" rx="0.452338" transform="matrix(-0.613641 0.789585 -0.780997 -0.624535 73.218 67.1704)" fill="black" fill-opacity="0.16"/>
<rect width="0.904676" height="3.44782" rx="0.452338" transform="matrix(0.613641 -0.789585 0.780997 0.624535 8.78223 16.8035)" fill="#4CCF1C"/>
<rect width="0.904181" height="3.44972" rx="0.45209" transform="matrix(-0.644081 0.764958 -0.755806 -0.654795 72.2178 68.4342)" fill="black" fill-opacity="0.16"/>
<rect width="0.904181" height="3.44972" rx="0.45209" transform="matrix(0.64408 -0.764958 0.755806 0.654795 9.78223 15.5401)" fill="#4CCF1C"/>
<rect width="0.903679" height="3.45164" rx="0.451839" transform="matrix(-0.673565 0.739128 -0.729474 -0.684009 71.1699 69.657)" fill="black" fill-opacity="0.16"/>
<rect width="0.903679" height="3.45164" rx="0.451839" transform="matrix(0.673564 -0.739129 0.729474 0.684009 10.8293 14.3172)" fill="#4CCF1C"/>
<rect width="0.903174" height="3.45357" rx="0.451587" transform="matrix(-0.702045 0.712133 -0.702045 -0.712133 70.0759 70.8372)" fill="black" fill-opacity="0.16"/>
<rect width="0.903174" height="3.45357" rx="0.451587" transform="matrix(0.702045 -0.712133 0.702045 0.712133 11.9243 13.1371)" fill="#4CCF1C"/>
<rect width="0.902668" height="3.45551" rx="0.451334" transform="matrix(0.729474 -0.684009 0.673564 0.739128 13.0637 12.0014)" fill="#4CCF1C"/>
<rect width="0.902165" height="3.45743" rx="0.451083" transform="matrix(0.755806 -0.654795 0.64408 0.764958 14.2449 10.912)" fill="#4CCF1C"/>
<rect width="0.901668" height="3.45932" rx="0.450834" transform="matrix(0.780997 -0.624535 0.613641 0.789585 15.4685 9.8703)" fill="#4CCF1C"/>
<rect width="0.901181" height="3.46118" rx="0.45059" transform="matrix(0.805002 -0.593272 0.582295 0.812977 16.7317 8.87851)" fill="#4CCF1C"/>
<rect width="0.900705" height="3.46299" rx="0.450352" transform="matrix(0.82778 -0.561053 0.550093 0.835103 18.0317 7.93753)" fill="#4CCF1C"/>
<rect width="0.900244" height="3.46474" rx="0.450122" transform="matrix(0.849291 -0.527925 0.517086 0.855933 19.3665 7.04889)" fill="#4CCF1C"/>
<rect width="0.899801" height="3.46642" rx="0.449901" transform="matrix(0.869497 -0.493939 0.483325 0.875441 20.7361 6.21429)" fill="#4CCF1C"/>
<rect width="0.899379" height="3.46802" rx="0.449689" transform="matrix(0.88836 -0.459147 0.448862 0.893601 22.1375 5.43466)" fill="#4CCF1C"/>
<rect width="0.89898" height="3.46954" rx="0.44949" transform="matrix(0.905848 -0.423603 0.41375 0.91039 23.5652 4.71152)" fill="#4CCF1C"/>
<rect width="0.898607" height="3.47095" rx="0.449303" transform="matrix(0.921928 -0.387362 0.378042 0.925788 25.0217 4.04605)" fill="#4CCF1C"/>
<rect width="0.898261" height="3.47226" rx="0.449131" transform="matrix(0.936569 -0.350484 0.34179 0.939776 26.5024 3.43927)" fill="#4CCF1C"/>
<rect width="0.897947" height="3.47345" rx="0.448973" transform="matrix(0.949745 -0.313025 0.305049 0.952336 28.0056 2.89145)" fill="#4CCF1C"/>
<rect width="0.897664" height="3.47452" rx="0.448832" transform="matrix(0.961431 -0.275048 0.267873 0.963454 29.5278 2.40384)" fill="#4CCF1C"/>
<rect width="0.897415" height="3.47545" rx="0.448708" transform="matrix(0.971604 -0.236613 0.230315 0.973116 31.0698 1.97742)" fill="#4CCF1C"/>
<rect width="0.897202" height="3.47626" rx="0.448601" transform="matrix(0.980245 -0.197785 0.19243 0.981311 32.6257 1.61301)" fill="#4CCF1C"/>
<rect width="0.897026" height="3.47692" rx="0.448513" transform="matrix(0.987339 -0.158626 0.154272 0.988028 34.1938 1.31076)" fill="#4CCF1C"/>
<rect width="0.896887" height="3.47745" rx="0.448444" transform="matrix(0.99287 -0.119203 0.115895 0.993261 35.7742 1.07098)" fill="#4CCF1C"/>
<rect width="0.896788" height="3.47782" rx="0.448394" transform="matrix(0.996828 -0.0795795 0.0773544 0.997004 37.3623 0.89447)" fill="#4CCF1C"/>
<rect width="0.896728" height="3.47805" rx="0.448364" transform="matrix(0.999207 -0.0398231 0.0387045 0.999251 38.9546 0.78125)" fill="#4CCF1C"/>
</svg>
