<svg width="67" height="65" viewBox="0 0 67 65" fill="none" xmlns="http://www.w3.org/2000/svg">
<path fill-rule="evenodd" clip-rule="evenodd" d="M21.3429 1.09339C26.8031 0.569084 39.5225 0.656992 45.2488 1.08711C47.2315 1.23467 49.1318 2.64434 47.3392 6.01309C44.3367 11.6549 41.0776 16.1162 36.9919 21.9024C40.3998 21.7988 44.0516 21.6199 47.7446 21.758C50.9466 21.8773 52.6284 23.8552 50.0281 27.2585C40.9763 39.1135 29.3368 51.408 17.9666 61.1501C12.7281 65.6397 9.91564 65.3854 11.8635 58.56C13.4977 52.8365 15.5216 43.2734 18.9833 35.4182C15.6292 35.6317 6.63759 35.6757 3.24237 35.5909C0.714949 35.5281 -0.216205 33.7888 0.461574 31.4718C2.84647 23.3184 9.43106 12.1698 14.356 5.15285C16.4432 2.17654 17.5486 1.45758 21.3429 1.09339Z" fill="#E03388"/>
<g clip-path="url(#clip0_103_4004)">
<path d="M25.9779 30.0128C24.3739 29.6999 23.8498 27.9745 22.7718 26.9619C22.1988 26.3852 21.393 26.0694 20.5708 26.1385C19.1748 26.251 18.0585 27.22 17.5602 28.4793C16.8492 30.1802 17.1999 32.0682 17.6714 33.7784C18.1294 35.554 18.9227 37.7729 20.9809 38.1794C21.8538 38.3628 22.905 38.1491 23.408 37.3644C23.3275 37.4618 23.2394 37.5507 23.1436 37.632C22.8542 37.8665 22.4949 38.0092 22.126 38.0565C21.3939 38.152 20.636 37.9421 20.0438 37.5185C19.0521 36.7679 18.597 35.5502 18.275 34.3958C17.7911 32.5409 17.244 30.5044 17.9876 28.6495C18.4226 27.5358 19.3788 26.6547 20.6072 26.5251C21.3355 26.4382 22.0263 26.6963 22.5629 27.1841C23.6572 28.1305 24.348 29.8634 25.9779 30.0128Z" fill="#3E007C"/>
<path d="M21.6535 34.8184C21.6036 35.0832 21.5404 35.3526 21.389 35.5767C21.2376 35.8007 20.9799 35.9728 20.7077 35.952C20.3312 35.9236 20.0801 35.5653 19.9048 35.2344C19.0213 33.5676 18.6083 31.6607 18.7252 29.7831C18.7492 29.3955 18.7981 29.0003 18.9677 28.6495C19.2551 28.0558 19.9527 27.672 20.564 28.0804C21.0651 28.4151 21.2204 29.2272 21.3823 29.7661C21.8729 31.3979 21.9716 33.145 21.6535 34.8194V34.8184Z" fill="#3E007C"/>
<path d="M36.5074 7.39164C36.6099 6.74497 36.3818 6.07278 35.9995 5.53956C34.9685 4.07698 32.7723 3.81226 31.4309 5.00917C31.1856 5.2304 30.9796 5.49134 30.856 5.78631C30.9288 5.74944 30.9968 5.70973 31.0629 5.67192C31.5056 5.43745 32.0039 5.25782 32.4925 5.18502C34.2288 4.88154 35.7418 5.87991 36.5074 7.3907V7.39164Z" fill="#3E007C"/>
<path d="M22.8667 6.26941C22.8216 5.20108 21.9142 4.30387 20.8985 4.0089C19.4363 3.55226 17.8026 4.43718 17.36 5.87139C17.2584 6.20418 17.2248 6.55493 17.2929 6.88299C17.5468 6.30817 17.9119 5.83262 18.3929 5.46013C19.858 4.28496 21.8098 4.83142 22.8657 6.26941H22.8667Z" fill="#3E007C"/>
<path d="M3.71523 11.3946C4.65138 10.6363 6.00052 10.7687 7.14268 11.1232C7.76742 11.317 8.39599 11.5014 9.02744 11.6763C17.0082 13.8791 25.5476 14.5183 33.7487 13.5605C35.5683 13.3478 37.3793 12.8477 39.1989 12.7125C40.9476 12.583 42.4855 12.8675 44.1825 13.2769C45.7606 13.6579 47.1107 13.7071 48.7099 13.4811C50.815 13.1843 52.9441 13.1275 55.0627 12.998C57.7207 12.8354 60.3471 13.0689 62.5749 14.4029C64.7864 15.7265 66.3617 18.2328 66.1001 20.7713C65.7685 23.9876 61.9367 22.7907 61.4519 20.3241C61.2478 19.2823 61.3139 18.1629 60.8204 17.2203C60.1545 15.9477 58.5946 15.3332 57.1429 15.3635C55.4153 15.4003 53.8276 16.0593 52.1862 16.5055C49.8722 17.1342 47.5352 17.9899 45.3802 19.1121C44.4163 19.6141 43.3555 19.9932 42.8496 20.9859C42.3303 22.0051 42.2488 23.1812 41.9202 24.2618C41.1785 26.7038 39.129 28.6807 36.7086 29.2877C34.2882 29.8947 31.5823 29.1118 29.8269 27.2947C28.8275 26.2604 28.1462 24.952 27.2436 23.8288C26.341 22.7056 25.0867 21.7224 23.6686 21.7432C22.4775 21.7612 21.5309 22.8976 20.9167 23.8231C20.2565 24.8177 19.625 25.6365 18.6036 26.3011C15.3045 28.4453 10.0182 26.5006 8.30688 22.9893C7.85749 22.0665 7.63135 21.0493 7.28928 20.0792C6.5898 18.091 5.18701 17.5758 3.89537 16.1245C3.31279 15.4703 2.87873 14.6487 2.80016 13.7666C2.72063 12.8836 3.03492 11.9429 3.71332 11.3946H3.71523Z" fill="#8C66CB"/>
<path d="M29.6524 27.463C29.0459 26.8353 28.5505 26.1054 28.0724 25.3982C27.7495 24.9227 27.416 24.4301 27.0548 23.9801C26.4483 23.2256 25.2064 21.9635 23.6753 21.9862C22.8301 21.9994 21.9965 22.6432 21.1246 23.9574C20.405 25.0408 19.7563 25.8444 18.7415 26.5044C17.2717 27.4592 15.2806 27.6937 13.2779 27.1463C10.9917 26.5214 9.00347 24.969 8.09031 23.0952C7.78465 22.4683 7.57864 21.7971 7.38029 21.1476C7.28064 20.8214 7.17716 20.4839 7.06313 20.1596C6.61757 18.8918 5.88264 18.2612 5.03273 17.5313C4.60154 17.1617 4.15599 16.7788 3.71618 16.2843C3.24379 15.753 2.65929 14.8889 2.5606 13.7884C2.46957 12.7711 2.85285 11.7822 3.56191 11.2083C4.63125 10.3423 6.1404 10.5588 7.2174 10.8935C7.83639 11.0854 8.46784 11.2707 9.09545 11.4437C17.012 13.6286 25.5274 14.2772 33.7219 13.3213C34.5162 13.2287 35.3259 13.0774 36.1097 12.9309C37.1139 12.7427 38.1516 12.5489 39.1826 12.4724C40.8978 12.3447 42.3906 12.5962 44.2428 13.0434C45.7567 13.4083 47.0829 13.4688 48.6783 13.2438C50.3033 13.015 51.9639 12.9271 53.5698 12.842C54.0556 12.8165 54.5587 12.79 55.0512 12.7598C58.3014 12.5612 60.7332 13.0188 62.7052 14.1987C65.14 15.6565 66.6031 18.3085 66.3473 20.7978C66.2122 22.1053 65.4772 22.9146 64.3801 22.9628C63.1105 23.0195 61.5343 21.9918 61.2162 20.3723C61.1472 20.0235 61.1088 19.6651 61.0705 19.3182C60.9929 18.6034 60.9191 17.9284 60.6077 17.3328C60.0414 16.2522 58.6846 15.5752 57.1525 15.6064C55.903 15.6329 54.7455 15.9893 53.5209 16.3666C53.108 16.4932 52.6816 16.6247 52.2561 16.7409C49.7754 17.415 47.5026 18.2858 45.499 19.3286C45.3409 19.4108 45.1799 19.4902 45.0237 19.5668C44.2198 19.962 43.4609 20.3364 43.0728 21.0975C42.7557 21.7205 42.61 22.3984 42.4558 23.1169C42.3695 23.5187 42.2804 23.9337 42.1587 24.3346C41.3922 26.8589 39.2784 28.8963 36.7728 29.525C36.2074 29.6668 35.6287 29.7358 35.049 29.7358C33.0559 29.7358 31.061 28.9228 29.6534 27.4659L29.6524 27.463ZM61.0389 17.1106C61.3925 17.7866 61.4749 18.5382 61.5534 19.2662C61.5899 19.6028 61.6282 19.9507 61.6924 20.2797C61.9588 21.6345 63.3079 22.5279 64.3542 22.4806C65.2118 22.4428 65.7455 21.8273 65.8576 20.7486C66.0953 18.4408 64.726 15.9742 62.4484 14.6109C60.5656 13.484 58.2237 13.0481 55.078 13.241C54.5826 13.2712 54.0796 13.2977 53.5928 13.3242C51.9974 13.4083 50.3474 13.4962 48.7444 13.7222C47.0838 13.9567 45.7021 13.8933 44.124 13.5133C42.3178 13.0774 40.8671 12.8326 39.2171 12.9545C38.2139 13.0292 37.1896 13.2202 36.1988 13.4055C35.4073 13.5539 34.589 13.7061 33.7775 13.8016C25.5198 14.765 16.9392 14.1108 8.96131 11.9098C8.3289 11.7359 7.69266 11.5487 7.06888 11.3549C6.10686 11.0561 4.77114 10.8528 3.87045 11.5827C3.29362 12.0497 2.96975 12.8997 3.0464 13.7477C3.11443 14.505 3.48238 15.2935 4.0822 15.9676C4.49998 16.4375 4.93308 16.809 5.35181 17.1692C6.21705 17.9123 7.03439 18.6138 7.52306 20.0027C7.63996 20.3364 7.74536 20.6786 7.84693 21.0095C8.04048 21.6411 8.24075 22.2944 8.53012 22.8881C9.38387 24.64 11.2533 26.095 13.4073 26.683C15.2739 27.1926 17.1193 26.9818 18.4713 26.1025C19.4152 25.489 20.0294 24.726 20.7145 23.6946C21.6822 22.2367 22.6471 21.521 23.6666 21.5059C23.6829 21.5059 23.6983 21.5059 23.7136 21.5059C24.987 21.5059 26.3074 22.2774 27.4362 23.6832C27.8098 24.1484 28.149 24.6494 28.4767 25.1325C28.9443 25.8218 29.4273 26.5346 30.0051 27.1321C31.702 28.8887 34.3102 29.6441 36.6501 29.057C38.9919 28.4699 40.9696 26.5611 41.6883 24.1956C41.8042 23.8146 41.8914 23.409 41.9748 23.0167C42.1281 22.3 42.2871 21.5588 42.633 20.881C43.0939 19.9762 43.962 19.5489 44.8024 19.1357C44.9557 19.0601 45.1147 18.9816 45.2681 18.9022C47.3023 17.8433 49.6087 16.9593 52.1229 16.2767C52.5407 16.1633 52.9633 16.0328 53.3724 15.9071C54.5759 15.5365 55.8206 15.1536 57.1391 15.1252C57.1774 15.1252 57.2157 15.1243 57.2541 15.1243C58.9251 15.1243 60.4027 15.8967 61.0389 17.1125V17.1106Z" fill="#3E007C"/>
<path d="M29.6524 27.463C29.0459 26.8353 28.5505 26.1054 28.0724 25.3982C27.7495 24.9227 27.416 24.4301 27.0548 23.9801C26.4483 23.2256 25.2064 21.9635 23.6753 21.9862C22.8301 21.9994 21.9965 22.6432 21.1246 23.9574C20.405 25.0408 19.7563 25.8444 18.7415 26.5044C17.2717 27.4592 15.2806 27.6937 13.2779 27.1463C10.9917 26.5214 9.00347 24.969 8.09031 23.0952C7.78465 22.4683 7.57864 21.7971 7.38029 21.1476C7.28064 20.8214 7.17716 20.4839 7.06313 20.1596C6.61757 18.8918 5.88264 18.2612 5.03273 17.5313C4.60154 17.1617 4.15599 16.7788 3.71618 16.2843C3.24379 15.753 2.65929 14.8889 2.5606 13.7884C2.46957 12.7711 2.85285 11.7822 3.56191 11.2083C4.63125 10.3423 6.1404 10.5588 7.2174 10.8935C7.83639 11.0854 8.46784 11.2707 9.09545 11.4437C17.012 13.6286 25.5274 14.2772 33.7219 13.3213C35.2214 13.1464 36.7344 12.8704 38.1976 12.6047C38.6221 12.5272 39.0465 12.4497 39.472 12.375C39.6416 12.3447 39.8179 12.3088 39.9875 12.2729C40.6802 12.1292 41.396 11.9807 42.1118 12.1585C42.7279 12.3116 43.3162 12.5565 43.8854 12.7938C44.1029 12.8846 44.3271 12.9772 44.5475 13.0632C45.3169 13.3629 46.1343 13.6352 46.9027 13.5974C47.2256 13.5813 47.5447 13.501 47.882 13.4149C48.1388 13.3497 48.4042 13.2826 48.6792 13.2438C50.3043 13.015 51.9648 12.9271 53.5698 12.842C54.0556 12.8165 54.5587 12.79 55.0512 12.7598C58.3014 12.5612 60.7332 13.0188 62.7052 14.1987C65.14 15.6565 66.6031 18.3085 66.3473 20.7978C66.2122 22.1053 65.4772 22.9146 64.3801 22.9628C63.1105 23.0195 61.5343 21.9918 61.2162 20.3723C61.1472 20.0235 61.1088 19.6651 61.0705 19.3182C60.9929 18.6034 60.9191 17.9284 60.6077 17.3328C60.0414 16.2522 58.6846 15.5752 57.1525 15.6064C55.903 15.6329 54.7455 15.9893 53.5209 16.3666C53.108 16.4932 52.6816 16.6247 52.2561 16.7409C49.7754 17.415 47.5026 18.2858 45.499 19.3286C45.3409 19.4108 45.1799 19.4902 45.0237 19.5668C44.2198 19.962 43.4609 20.3364 43.0728 21.0975C42.7557 21.7205 42.61 22.3984 42.4558 23.1169C42.3695 23.5187 42.2804 23.9337 42.1587 24.3346C41.3922 26.8589 39.2784 28.8963 36.7728 29.525C36.2074 29.6668 35.6287 29.7358 35.049 29.7358C33.0559 29.7358 31.061 28.9228 29.6534 27.4659L29.6524 27.463ZM61.0389 17.1106C61.3925 17.7866 61.4749 18.5382 61.5534 19.2662C61.5899 19.6028 61.6282 19.9507 61.6924 20.2797C61.9588 21.6345 63.3079 22.5279 64.3542 22.4806C65.2118 22.4428 65.7455 21.8273 65.8576 20.7486C66.0953 18.4408 64.726 15.9742 62.4484 14.6109C60.5656 13.484 58.2237 13.0481 55.078 13.241C54.5826 13.2712 54.0796 13.2977 53.5928 13.3242C51.9974 13.4083 50.3474 13.4962 48.7444 13.7222C48.4962 13.7572 48.2557 13.8186 47.9999 13.8829C47.6539 13.9709 47.2956 14.0616 46.9238 14.0796C46.0634 14.1212 45.1857 13.8319 44.3654 13.5123C44.1393 13.4244 43.9122 13.3299 43.6928 13.2381C43.1409 13.0084 42.5698 12.7711 41.9891 12.6265C41.3836 12.4752 40.7531 12.6066 40.0852 12.7446C39.9118 12.7806 39.7316 12.8184 39.5544 12.8496C39.1299 12.9243 38.7064 13.0018 38.2829 13.0793C36.812 13.3469 35.2914 13.6239 33.7765 13.8007C25.5188 14.7641 16.9382 14.1098 8.96035 11.9089C8.32794 11.7349 7.6917 11.5477 7.06792 11.3539C6.1059 11.0552 4.77018 10.8519 3.86949 11.5818C3.29266 12.0488 2.96879 12.8987 3.04544 13.7468C3.11348 14.5041 3.48142 15.2926 4.08125 15.9666C4.49902 16.4365 4.93212 16.8081 5.35085 17.1683C6.21609 17.9114 7.03343 18.6129 7.5221 20.0017C7.639 20.3355 7.74441 20.6777 7.84597 21.0086C8.03953 21.6401 8.23979 22.2934 8.52916 22.8872C9.38291 24.639 11.2523 26.094 13.4063 26.6821C15.2729 27.1917 17.1184 26.9809 18.4704 26.1016C19.4142 25.488 20.0284 24.7251 20.7135 23.6936C21.6813 22.2358 22.6462 21.5201 23.6657 21.5049C23.682 21.5049 23.6973 21.5049 23.7126 21.5049C24.9861 21.5049 26.3064 22.2764 27.4352 23.6823C27.8089 24.1474 28.1481 24.6485 28.4758 25.1316C28.9434 25.8208 29.4263 26.5337 30.0041 27.1312C31.7011 28.8878 34.3092 29.6432 36.6491 29.0561C38.991 28.4689 40.9687 26.5601 41.6873 24.1947C41.8032 23.8137 41.8904 23.4081 41.9738 23.0157C42.1271 22.2991 42.2862 21.5579 42.6321 20.88C43.093 19.9752 43.9611 19.5479 44.8014 19.1348C44.9547 19.0591 45.1138 18.9807 45.2671 18.9012C47.3013 17.8424 49.6077 16.9584 52.122 16.2758C52.5398 16.1623 52.9623 16.0319 53.3715 15.9061C54.575 15.5355 55.8196 15.1526 57.1381 15.1243C57.1764 15.1243 57.2148 15.1233 57.2531 15.1233C58.9242 15.1233 60.4017 15.8957 61.0379 17.1116L61.0389 17.1106Z" fill="#3E007C"/>
<path d="M8.62604 11.6196C8.0128 11.457 7.40339 11.2849 6.79782 11.1043C5.69111 10.7734 4.38126 10.6505 3.47386 11.3568C2.81654 11.8682 2.51183 12.7456 2.58849 13.5681C2.66514 14.3906 3.08579 15.1564 3.65112 15.7662C4.90348 17.1191 6.26506 17.5994 6.94346 19.4534C7.27404 20.3582 7.49442 21.3064 7.9304 22.1668C9.58998 25.4398 14.7182 27.2522 17.9186 25.2536C18.9103 24.6343 19.5216 23.8714 20.1626 22.9439C20.7586 22.0807 21.6766 21.0218 22.8322 21.0048C24.2081 20.985 25.4241 21.9011 26.2998 22.9486C27.1756 23.9962 27.8368 25.2158 28.8055 26.1801C30.5082 27.8733 33.1327 28.6032 35.4812 28.0378C37.8297 27.4715 39.817 25.6298 40.5366 23.3523C40.9333 22.0977 40.9985 20.6739 41.857 19.6699C42.9867 18.3472 45.1695 18.1591 46.0836 16.6842C47.907 13.743 43.7063 11.7652 41.3856 12.0242C38.4736 12.3485 35.5521 13.0453 32.6076 13.3762C24.6518 14.2687 16.3692 13.6721 8.627 11.6196H8.62604Z" fill="#3E007C"/>
<path d="M28.631 26.3503C28.0417 25.7641 27.5607 25.0824 27.096 24.4244C26.7836 23.981 26.4597 23.5225 26.109 23.1037C25.5217 22.4012 24.3144 21.2251 22.833 21.2469C22.0147 21.2591 21.206 21.8585 20.3618 23.08C19.6633 24.0916 19.0319 24.8423 18.0468 25.4578C16.5942 26.3644 14.629 26.5743 12.6532 26.0316C10.4426 25.4247 8.59526 24.0207 7.70989 22.2745C7.41285 21.6884 7.21259 21.0615 7.01999 20.4555C6.92322 20.1511 6.82261 19.8372 6.71242 19.5356C6.28123 18.3586 5.57121 17.7724 4.74813 17.0927C4.3294 16.7476 3.89725 16.3902 3.4699 15.9288C3.00997 15.4315 2.44081 14.6223 2.34403 13.5899C2.25492 12.634 2.62957 11.7056 3.32138 11.1667C4.36006 10.3584 5.82322 10.5607 6.86764 10.8727C7.46747 11.0514 8.08071 11.2244 8.68916 11.3861C16.3681 13.4225 24.6296 14.0276 32.5787 13.136C34.0429 12.9715 35.528 12.7116 36.9634 12.4601C38.4036 12.2076 39.8926 11.9467 41.3567 11.7841C42.955 11.6063 45.4022 12.4402 46.3594 13.9226C46.7599 14.5428 47.0733 15.5478 46.2904 16.81C45.7634 17.6599 44.8589 18.1052 43.9831 18.5363C43.2376 18.9031 42.5334 19.2501 42.0418 19.8249C41.4736 20.4896 41.2753 21.3546 41.0654 22.2717C40.9782 22.6527 40.8872 23.0469 40.7684 23.4242C40.0229 25.783 37.9695 27.6852 35.5376 28.2714C34.9895 28.4037 34.429 28.4671 33.8665 28.4671C31.9329 28.4671 29.9974 27.7079 28.631 26.3493V26.3503ZM41.4123 12.2644C39.9635 12.426 38.4821 12.6851 37.0497 12.9356C35.6066 13.188 34.1138 13.4499 32.6343 13.6154C24.6248 14.5135 16.301 13.9037 8.56268 11.8522C7.94944 11.6895 7.33141 11.5156 6.72679 11.335C5.79351 11.0561 4.49708 10.867 3.62417 11.5468C3.06938 11.9788 2.75797 12.7635 2.83079 13.5473C2.89595 14.2488 3.25143 14.9796 3.83018 15.6055C4.23454 16.0423 4.65518 16.3893 5.0605 16.7239C5.90179 17.4179 6.69613 18.0731 7.17139 19.373C7.28541 19.6841 7.38698 20.0036 7.48567 20.3118C7.67348 20.8999 7.86703 21.5087 8.14683 22.0599C8.95937 23.6615 10.7359 25.0059 12.7845 25.5684C14.6271 26.0742 16.4495 25.8861 17.7853 25.0512C18.6994 24.4802 19.2944 23.7702 19.9584 22.8096C20.8984 21.4482 21.8365 20.7798 22.8263 20.7656C24.0777 20.7467 25.376 21.469 26.4866 22.7973C26.8497 23.2313 27.1784 23.6983 27.4975 24.1503C27.9507 24.7922 28.4183 25.4559 28.9779 26.0127C30.6231 27.6493 33.1527 28.3527 35.4217 27.8062C37.6907 27.2588 39.6071 25.4842 40.3017 23.2833C40.4158 22.924 40.5039 22.5392 40.5892 22.1677C40.8029 21.2355 41.0242 20.2712 41.6691 19.5167C42.2258 18.8653 43.0086 18.4805 43.7656 18.1071C44.6165 17.6883 45.4204 17.2931 45.8736 16.5604C46.3958 15.7171 46.4207 14.9182 45.9474 14.1836C45.1847 13.0027 43.2453 12.2445 41.808 12.2445C41.671 12.2445 41.5388 12.2511 41.4123 12.2653V12.2644Z" fill="#3E007C"/>
<path d="M8.00318 18.9145C8.69116 20.8063 9.703 22.7283 11.5073 23.7938C12.316 24.2722 13.5233 24.4452 14.4585 24.4329C14.7507 24.4291 15.0459 24.4065 15.3391 24.3649C16.1449 24.2514 16.9373 23.9933 17.6349 23.5915C17.6378 23.5896 17.6406 23.5887 17.6435 23.5868C18.0469 23.3523 18.4312 23.0318 18.7895 22.6508C19.1019 22.318 19.3932 21.9389 19.6596 21.5324C20.5842 20.1189 21.1974 18.3652 21.2664 17.0189C21.2808 16.7542 21.277 16.481 21.1783 16.2342C20.75 15.1706 18.3765 14.9711 17.4011 14.8217C16.9306 14.7499 16.4592 14.6856 15.9859 14.6279C15.4675 14.5646 14.9481 14.5069 14.4278 14.453C13.8491 14.3925 13.2694 14.3358 12.6897 14.2772C11.9088 14.1987 11.1288 14.1174 10.3527 14.02C10.1706 13.9973 9.98759 13.9756 9.80457 13.9623C9.55736 13.9453 9.3111 13.9463 9.06964 13.9879C9.02461 13.9964 8.97861 14.0049 8.93358 14.0162C8.69116 14.0758 8.45352 14.1703 8.24847 14.3131C6.83035 15.2982 7.53175 17.6164 8.00413 18.9145H8.00318Z" fill="#8C66CB"/>
<path d="M14.427 14.453L18.7887 22.6508C19.1011 22.318 19.3923 21.9389 19.6587 21.5324L15.985 14.6279C15.4666 14.5646 14.9473 14.5069 14.427 14.453Z" fill="#F7E5FB"/>
<path d="M9.80371 13.9623L15.3382 24.3649C16.1441 24.2514 16.9365 23.9933 17.634 23.5915C17.6369 23.5896 17.6398 23.5887 17.6427 23.5868L12.6888 14.2762C11.9079 14.1978 11.1279 14.1164 10.3518 14.0191C10.1697 13.9964 9.98673 13.9746 9.80371 13.9614V13.9623Z" fill="#F7E5FB"/>
<path d="M28.0044 23.409C29.1227 25.4833 31.2307 27.1293 33.6415 27.0896C34.2633 27.0792 34.8545 26.9733 35.4055 26.7861C36.1165 26.545 36.7623 26.1687 37.3257 25.6847C37.7751 25.2999 38.1728 24.848 38.5091 24.3412C38.7477 23.9839 38.9546 23.6 39.13 23.1944C39.1539 23.1386 39.1779 23.0829 39.2009 23.0261C39.9119 21.2733 40.0355 19.3579 40.0566 17.4888C40.0767 15.5771 38.5407 15.4315 36.8217 15.4798C35.8204 15.5072 34.8191 15.5365 33.8168 15.5639C33.2812 15.579 32.7456 15.5942 32.2099 15.6093C31.6561 15.6244 31.1013 15.6405 30.5465 15.6556C30.4009 15.6594 30.2533 15.6651 30.1048 15.6726C29.2875 15.7142 28.4318 15.822 27.7323 16.1491C27.2887 16.3562 26.9083 16.6521 26.64 17.0747C25.2592 19.2463 26.983 21.5116 28.0044 23.4071V23.409Z" fill="#8C66CB"/>
<path d="M32.2109 15.6102L38.511 24.3422C38.7496 23.9848 38.9566 23.601 39.1319 23.1954C39.1559 23.1396 39.1798 23.0838 39.2028 23.0271L33.8188 15.5648C33.2832 15.58 32.7475 15.5951 32.2119 15.6102H32.2109Z" fill="#F7E5FB"/>
<path d="M27.7334 16.151L35.4075 26.7861C36.1185 26.545 36.7643 26.1687 37.3277 25.6847L30.1059 15.6736C29.2885 15.7152 28.4329 15.8229 27.7334 16.15V16.151Z" fill="#F7E5FB"/>
<path d="M2.64209 13.5691C4.55464 13.7411 4.70795 13.9075 4.936 16.0546C5.07877 13.9 5.22537 13.7279 7.13025 13.483C5.2177 13.311 5.06439 13.1446 4.83634 10.9975C4.69357 13.1521 4.54697 13.3242 2.64209 13.5691Z" fill="#F7E5FB"/>
<path d="M39.8218 15.5289C41.9365 15.719 42.1071 15.9033 42.3581 18.2773C42.5162 15.8948 42.6781 15.7048 44.7842 15.4334C42.6695 15.2434 42.499 15.0591 42.2479 12.6851C42.0898 15.0676 41.9279 15.2576 39.8218 15.5289Z" fill="#F7E5FB"/>
<path d="M55.3272 11.8304C57.9853 11.6678 60.6116 11.9013 62.8394 13.2353C65.0509 14.5589 66.6262 17.0652 66.3646 19.6037C66.0331 22.82 62.2013 21.6231 61.7164 19.1565C61.5114 18.1146 61.5785 16.9953 61.085 16.0527C60.419 14.7801 58.8591 14.1656 57.4075 14.1959C55.6798 14.2327 54.0921 14.8917 52.4507 15.3379C50.6273 15.8333 48.7579 16.2011 46.9162 16.6284C46.3183 16.7674 45.685 16.9045 45.1005 16.7182C43.6143 16.2436 43.8357 13.9321 44.974 13.2334C46.1439 12.5158 47.6512 12.4988 48.9735 12.3126C51.0786 12.0157 53.2077 11.959 55.3272 11.8295V11.8304Z" fill="#3E007C"/>
<path d="M61.4769 19.2028C61.4079 18.854 61.3696 18.4957 61.3313 18.1487C61.2536 17.4339 61.1799 16.7589 60.8685 16.1633C60.3022 15.0827 58.9454 14.4048 57.4132 14.4369C56.1637 14.4634 55.0062 14.8198 53.7807 15.1971C53.3677 15.3238 52.9413 15.4552 52.5159 15.5715C51.2751 15.909 49.9959 16.1907 48.7589 16.463C48.1724 16.5925 47.5659 16.7258 46.9728 16.8639C46.4017 16.9962 45.6917 17.1607 45.0257 16.948C44.3598 16.7353 43.9229 16.1746 43.828 15.4088C43.7111 14.4634 44.1385 13.4632 44.8456 13.0292C45.822 12.4298 46.9881 12.3003 48.1149 12.1745C48.4014 12.1424 48.6717 12.1121 48.939 12.0743C50.5641 11.8455 52.2246 11.7576 53.8306 11.6716C54.3164 11.6461 54.8184 11.6196 55.3119 11.5893C58.5621 11.3908 60.994 11.8484 62.9659 13.0283C65.4007 14.4861 66.8638 17.138 66.607 19.6273C66.4719 20.9349 65.737 21.7441 64.6399 21.7924C64.6064 21.7942 64.5728 21.7942 64.5393 21.7942C63.2869 21.7942 61.7854 20.7789 61.4759 19.2009L61.4769 19.2028ZM55.3426 12.0715C54.8481 12.1017 54.3441 12.1282 53.8574 12.1547C52.262 12.2388 50.612 12.3268 49.008 12.5527C48.7339 12.5915 48.4465 12.6236 48.1696 12.6539C47.0964 12.7739 45.9868 12.8968 45.1034 13.4395C44.5591 13.7742 44.219 14.5958 44.3129 15.3512C44.3541 15.6868 44.5217 16.2815 45.1762 16.4904C45.7128 16.6615 46.3231 16.5197 46.8607 16.3949C47.4557 16.2569 48.0642 16.1226 48.6515 15.9931C49.8828 15.7218 51.1562 15.441 52.3856 15.1073C52.8034 14.9938 53.2259 14.8633 53.6351 14.7376C54.8386 14.367 56.0833 13.9841 57.4027 13.9557C59.1207 13.9189 60.6509 14.6998 61.3025 15.943C61.6561 16.619 61.7385 17.3706 61.8171 18.0986C61.8535 18.4351 61.8918 18.7831 61.956 19.1121C62.2224 20.4669 63.5715 21.3603 64.6178 21.313C65.4754 21.2752 66.0091 20.6597 66.1212 19.581C66.3589 17.2732 64.9896 14.8066 62.712 13.4433C61.1157 12.4875 59.1887 12.0289 56.7214 12.0289C56.2797 12.0289 55.8197 12.0441 55.3416 12.0724L55.3426 12.0715Z" fill="#3E007C"/>
<path d="M27.1085 24.5549C26.7089 23.8732 26.2662 23.1925 25.6635 22.6574C24.9161 21.9862 23.8114 21.5655 22.8177 21.9219C22.1048 22.1554 21.527 22.7766 21.4657 23.5338C21.3881 24.3431 21.7675 25.1108 22.2083 25.7641C22.8062 26.6452 23.6053 27.4016 24.5415 27.9178C23.2767 26.926 20.5545 23.653 22.7324 22.4551C23.3763 22.0996 24.1774 22.1894 24.8213 22.5033C25.7613 22.9411 26.4349 23.7844 27.1094 24.554L27.1085 24.5549Z" fill="#3E007C"/>
</g>
<defs>
<clipPath id="clip0_103_4004">
<rect width="66.529" height="34.353" fill="white" transform="translate(0.432617 3.88788)"/>
</clipPath>
</defs>
</svg>
