<svg width="24" height="24" viewBox="0 0 24 24" fill="none" xmlns="http://www.w3.org/2000/svg">
<g id="iconixto/solid/heart">
<path id="icon" d="M21.8085 10.668C20.8324 14.8014 15.1219 19.4654 12.8918 20.7579C12.3347 21.0807 11.6653 21.0807 11.1082 20.7579C8.87811 19.4654 3.16765 14.8014 2.19153 10.668C1.31012 6.93556 3.54708 3.05747 7.33511 3.00174C7.41331 3.00059 7.49265 3 7.57317 3C9.09809 3 10.4595 3.76167 11.2576 4.32479C11.6936 4.63244 12.3064 4.63244 12.7424 4.3248C13.5405 3.76167 14.9019 3 16.4268 3C16.5073 3 16.5867 3.00059 16.6649 3.00174C20.4529 3.05747 22.6899 6.93556 21.8085 10.668Z" fill="#9D80DD"/>
</g>
</svg>
